<svg version="1.1" xmlns="http://www.w3.org/2000/svg" viewBox="300 380 550 1180" width="120px" height="200px">
            <g id="fbt1">
                <g id="XMLID_335_">
                    <g id="XMLID_30_">
                        <path id="XMLID_34_" fill="#231815" d="M558.2,801.6c-8.3,8.6-8.8,22.7-1.6,32.2c7.2,9.5,20.8,12.3,31.7,8.5
			c11.9-4.1,20.1-15.3,22.3-27.4c2.7-14.6-3-28.8-12.1-40c-1.3-1.6-3.7-0.5-4.2,1.1c-1.5,4.5-2.5,9.7-4.5,14
			c-1.1,2.3-1.5,2.8-4.2,3.3c-1.7,0.3-3.5,0.3-5.2,0.1c-7.5-0.8-14.2-5.6-16.8-12.8c-0.8-2.1-4.3-2.6-4.8,0
			c-1.4,6.6-2.8,13.1-4.2,19.7c-0.7,3.1,4.1,4.5,4.8,1.3c1.4-6.6,2.8-13.1,4.2-19.7c-1.6,0-3.2,0-4.8,0c3.2,9,11.4,15.3,20.9,16.4
			c3.6,0.4,9.9,0.4,12.8-2.3c1.8-1.6,2.2-5.3,2.9-7.4c1.2-3.8,2.5-7.6,3.7-11.4c-1.4,0.4-2.8,0.7-4.2,1.1c7.3,9,12.2,20.4,11.2,32.2
			c-0.9,10.3-6.6,20.6-16,25.5c-8.7,4.5-20.7,3.7-27.9-3.4c-7.4-7.3-7.9-20.1-0.6-27.6C564,802.8,560.5,799.3,558.2,801.6
			L558.2,801.6z"/>
                    </g>
                </g>
                <g id="XMLID_336_">
                    <g id="XMLID_24_">
                        <path id="XMLID_28_" fill="#231815" d="M555.1,798.7c-6,11.6-5.4,25.4,2.1,36.2c1.8,2.6,6.1,0.1,4.3-2.5c-6.4-9.3-7.3-21.1-2.1-31.2
			C560.9,798.3,556.6,795.8,555.1,798.7L555.1,798.7z"/>
                    </g>
                </g>
                <g id="XMLID_337_">
                    <g id="XMLID_18_">
                        <path id="XMLID_22_" fill="#231815" d="M557.3,803.6c-13.6,7.5-31.1,2.2-40.6-9.5c-11.1-13.7-10.6-33.3-4.6-49.1
			c0.4-1.2-0.5-2.9-1.7-3.1c-22.6-3.6-45.5,11.3-62.4,24.8c-17.7,14.1-32.2,32-42.5,52.1c-1.5,2.9,2.6,5.2,4.3,2.5
			c9.5-14.6,28.9-30.9,46.4-18c16.6,12.2,14.1,35.5,11.7,53.4c-0.4,3.1,3.9,4.5,4.8,1.3c3-10.3,7.9-21.4,17.6-27.1
			c8.3-4.9,20.7-4.6,26.7,3.8c1,1.4,3.5,1.9,4.3,0c6.2-14,23.6-21.2,37.8-14.7c2.9,1.3,5.5-3,2.5-4.3c-16.4-7.5-37.2-0.1-44.6,16.5
			c1.4,0,2.9,0,4.3,0c-6.9-9.6-19.9-11.7-30.4-7.1c-12.7,5.5-19.3,19.1-23,31.6c1.6,0.4,3.2,0.9,4.8,1.3c2.8-20.6,5-47.3-15.5-60
			c-20.1-12.6-41.1,4.3-51.8,20.8c1.4,0.8,2.9,1.7,4.3,2.5c9.4-18.4,22.3-34.7,38.1-48.1c7.9-6.7,16.4-12.5,25.5-17.4
			c10.9-5.9,23.1-11.1,35.7-9.1c-0.6-1-1.2-2.1-1.7-3.1c-6.7,17.8-6.4,40,6.8,55c11.2,12.6,30.7,17.6,45.8,9.2
			C562.6,806.3,560.1,802,557.3,803.6L557.3,803.6z"/>
                    </g>
                </g>
                <g id="XMLID_338_">
                    <g id="XMLID_12_">
                        <path id="XMLID_16_" fill="#231815" d="M602.4,811.5c11.7-3.4,15.7-19.9,16-30.6c0.4-12.7-4.1-25-12.6-34.5c-0.2,1.3-0.3,2.6-0.5,3.9
			c17.7-12,37.9,13.1,46.5,26.2c9.9,15.2,15.8,32.7,16.9,50.8c1.7,0,3.3,0,5,0c-0.8-9.1-4.7-17-10.3-24.1
			c-4.9-6.2-11.6-14.2-20.3-13.9c-18.3,0.6-19.8,30.2-18.3,42.8c0.4,3.1,5.1,3.3,5,0c-0.4-9-2.9-19.2-12.2-22.8
			c-8.5-3.2-16.5,2.4-17.4,11.1c-0.4,3.2,4.6,3.2,5,0c0.9-8,9.9-8.6,14.7-3.7c4,4,4.7,10,5,15.4c1.7,0,3.3,0,5,0
			c-0.9-7.5-0.6-14.9,1.2-22.2c1.5-6,4.5-14.8,11.8-15.5c7.4-0.7,13.9,8,17.8,13.3c4.3,5.8,7.5,12.4,8.2,19.7c0.3,3.2,5.2,3.2,5,0
			c-1.3-21.1-8.6-41.5-21.2-58.5c-10.4-13.9-30.8-35.5-49.7-22.8c-1.4,0.9-1.6,2.7-0.5,3.9c6.9,7.7,10.8,17.7,11.1,28.1
			c0.3,8.8-2.3,25.7-12.3,28.6C598,807.6,599.3,812.4,602.4,811.5L602.4,811.5z"/>
                    </g>
                </g>
                <g id="XMLID_352_">
                    <g id="XMLID_369_">
                        <path id="XMLID_4_" fill="#231815" d="M671.1,827.4c-0.7-10.5-6.9-20-14.1-27.7c-3.9-4.2-9-8.5-14.8-7.8c-6.6,0.8-10.8,7.6-12.8,14
			c-2.1,6.7-3,13.8-2.7,20.9c-0.5-3.4-1.5-6.7-3.4-9.5c-2.9-4.3-8.3-7.3-13.4-6c-0.4,0.1-0.9,0.3-1.3,0.5c0.1-1.1,0.2-2.1,0.2-3.2
			c0-1.5,0-3-0.1-4.5c0.6-0.8,1.1-1.7,1.6-2.6c9.3-16.6,6.7-39.2-6.3-53.1c5-3.8,12-4.1,17.9-2.2c6,1.9,11.1,5.8,15.7,10
			C657.4,774.3,669.7,800.5,671.1,827.4z"/>
                        <path id="XMLID_3_" fill="#231815" d="M608.7,811.7c-1.2,10.5-6.8,20.6-15.9,25.9c-10,5.9-23.9,5-32.2-3.1c-2.2-2.1-3.8-4.7-4.9-7.5
			c-1.4-3.6-1.9-7.5-1.5-11.3c0.3-3.4,1.4-6.6,3.3-9.4c-1,0.6-2.1,1-3.2,1.5c0.6-2.7,1.6-5.4,3-7.9l0.1,0c1.3-6.2,2.7-12.4,4-18.6
			c3.7,11.7,18.8,18.2,29.9,12.8c1.9-5.8,3.8-11.7,5.7-17.5c6.5,7.7,11,17.3,11.9,27.3c0.1,1.5,0.2,3,0.1,4.5
			C608.9,809.5,608.8,810.6,608.7,811.7z"/>
                        <path id="XMLID_2_" fill="#231815" d="M553.5,815.6c0-2.6,0.2-5.3,0.8-7.8c1.1-0.4,2.2-0.9,3.2-1.5c-1.9,2.8-3,6-3.3,9.4
			C553.9,815.7,553.7,815.7,553.5,815.6z"/>
                        <path id="XMLID_1_" fill="#231815" d="M554.3,807.8c-0.6,2.6-0.9,5.2-0.8,7.8c-13.6-2.5-29,4.9-34.3,17.9c-6.3-9.6-21-10.5-30.7-4.3
			c-9.7,6.1-15.1,17.2-18.2,28.2c1.6-11.4,3.1-23.1,0.6-34.3c-2.5-11.2-9.8-22.1-20.7-25.6c-8.3-2.6-17.5-0.6-24.9,3.9
			c-7.4,4.5-13.1,11.4-17.7,18.6c14.8-29.1,38.9-53.4,68-68.2c10.6-5.4,22.5-9.7,34.1-7.5c-6.2,16-6.1,35.2,3.7,49.3
			C522.2,806.5,540,813.2,554.3,807.8z"/>
                    </g>
                    <g id="XMLID_376_">
                        <path id="XMLID_29_" fill="none" stroke="#231815" stroke-miterlimit="10" d="M560,803.4c-0.9,0.9-1.8,1.9-2.5,3c-1.9,2.8-3,6-3.3,9.4c-0.4,3.8,0.1,7.7,1.5,11.3
			c1.1,2.8,2.7,5.4,4.9,7.5c8.3,8.1,22.2,9,32.2,3.1c9.1-5.3,14.7-15.4,15.9-25.9c0.1-1.1,0.2-2.1,0.2-3.2c0-1.5,0-3-0.1-4.5
			c-0.9-10-5.4-19.6-11.9-27.3c-1.9,5.8-3.8,11.7-5.7,17.5c-11,5.4-26.1-1.1-29.9-12.8c-1.3,6.2-2.7,12.4-4,18.6
			c-0.1,0.4-0.1,0.7-0.2,1.1"/>
                        <path id="XMLID_23_" fill="none" stroke="#231815" stroke-miterlimit="10" d="M557.3,799.9c-1.4,2.5-2.4,5.1-3,7.9c-0.6,2.6-0.9,5.2-0.8,7.8c0.1,3.9,0.8,7.8,2.2,11.4
			c0.9,2.3,2.1,4.6,3.6,6.6"/>
                        <path id="XMLID_17_" fill="none" stroke="#231815" stroke-miterlimit="10" d="M558.5,805.7c-0.3,0.2-0.7,0.4-1,0.6c-1,0.6-2.1,1-3.2,1.5c-14.3,5.4-32.1-1.3-41-14.1
			c-9.8-14.1-9.9-33.3-3.7-49.3c-11.7-2.2-23.6,2.1-34.1,7.5c-29.1,14.9-53.2,39.1-68,68.2c4.6-7.3,10.4-14.1,17.7-18.6
			c7.4-4.5,16.6-6.5,24.9-3.9c11,3.4,18.3,14.3,20.7,25.6c2.5,11.2,0.9,22.9-0.6,34.3c3.1-11,8.5-22.1,18.2-28.2
			c9.7-6.1,24.4-5.2,30.7,4.3c5.3-13,20.8-20.4,34.3-17.9c0.2,0,0.5,0.1,0.7,0.1c2.1,0.4,4.1,1.1,6.1,2.1"/>
                        <path id="XMLID_11_" fill="none" stroke="#231815" stroke-miterlimit="10" d="M626.7,826.7c-0.5-3.4-1.5-6.7-3.4-9.5c-2.9-4.3-8.3-7.3-13.4-6c-0.4,0.1-0.9,0.3-1.3,0.5
			c-3.5,1.5-6,5-6.1,8.8"/>
                        <path id="XMLID_6_" fill="none" stroke="#231815" stroke-miterlimit="10" d="M626.7,826.7c0.1,1.8,0.2,3.6,0.5,5.4C627.2,830.4,627,828.5,626.7,826.7z"/>
                        <path id="XMLID_5_" fill="none" stroke="#231815" stroke-miterlimit="10" d="M601.7,809.1c2.9-0.6,5.2-2.7,7-5.1c0.6-0.8,1.1-1.7,1.6-2.6c9.3-16.6,6.7-39.2-6.3-53.1
			c5-3.8,12-4.1,17.9-2.2c6,1.9,11.1,5.8,15.7,10c19.8,18.3,32.1,44.4,33.5,71.3c-0.7-10.5-6.9-20-14.1-27.7
			c-3.9-4.2-9-8.5-14.8-7.8c-6.6,0.8-10.8,7.6-12.8,14c-2.1,6.7-3,13.8-2.7,20.9"/>
                    </g>
                </g>
                <g id="XMLID_35_">
                    <g id="XMLID_47_">
                        <path id="XMLID_51_" fill = "#FFFFFF" d="M575.5,819c3.2,0,3.2-5,0-5C572.3,814,572.3,819,575.5,819L575.5,819z"/>
                    </g>
                </g>
                <g id="XMLID_36_">
                    <g id="XMLID_54_">
                        <path id="XMLID_58_" fill = "#FFFFFF" d="M597.7,814.4c3.2,0,3.2-5,0-5C594.5,809.4,594.5,814.4,597.7,814.4L597.7,814.4z"/>
                    </g>
                </g>
                <animate
                        id="frame1"
                        attributeName="display"
                        values="inline;none;inline;"
                        keyTimes="0;0.5;1"
                        dur="1s"
                        begin="0s"
                        repeatCount="indefinite" />
            </g>
            <g id="fbt2">
                <g id="XMLID_438_">
                    <g id="XMLID_30_">
                        <path id="XMLID_34_" fill="#231815" d="M538.2,740.6c-8.3,8.6-8.8,22.7-1.6,32.2c7.2,9.5,20.8,12.3,31.7,8.5
			c11.9-4.1,20.1-15.3,22.3-27.4c2.7-14.6-3-28.8-12.1-40c-1.3-1.6-3.7-0.5-4.2,1.1c-1.5,4.5-2.5,9.7-4.5,14
			c-1.1,2.3-1.5,2.8-4.2,3.3c-1.7,0.3-3.5,0.3-5.2,0.1c-7.5-0.8-14.2-5.6-16.8-12.8c-0.8-2.1-4.3-2.6-4.8,0
			c-1.4,6.6-2.8,13.1-4.2,19.7c-0.7,3.1,4.1,4.5,4.8,1.3c1.4-6.6,2.8-13.1,4.2-19.7c-1.6,0-3.2,0-4.8,0c3.2,9,11.4,15.3,20.9,16.4
			c3.6,0.4,9.9,0.4,12.8-2.3c1.8-1.6,2.2-5.3,2.9-7.4c1.2-3.8,2.5-7.6,3.7-11.4c-1.4,0.4-2.8,0.7-4.2,1.1c7.3,9,12.2,20.4,11.2,32.2
			c-0.9,10.3-6.6,20.6-16,25.5c-8.7,4.5-20.7,3.7-27.9-3.4c-7.4-7.3-7.9-20.1-0.6-27.6C543.9,741.8,540.4,738.3,538.2,740.6
			L538.2,740.6z"/>
                    </g>
                </g>
                <g id="XMLID_437_">
                    <g id="XMLID_24_">
                        <path id="XMLID_28_" fill="#231815" d="M535,737.7c-6,11.6-5.4,25.4,2.1,36.2c1.8,2.6,6.1,0.1,4.3-2.5c-6.4-9.3-7.3-21.1-2.1-31.2
			C540.8,737.4,536.5,734.8,535,737.7L535,737.7z"/>
                    </g>
                </g>
                <g id="XMLID_412_">
                    <g id="XMLID_18_">
                        <path id="XMLID_22_" fill="#231815" d="M540.3,739.6c-5,12.2-14.3,22.2-25.7,28.7c-12.1,6.9-24.5,8.3-38.1,7.3
			c-13.8-1-21.5,9.4-28,20.2c-7.5,12.4-13.3,25.9-17.1,39.9c-4.4,16-6.2,32.6-5.4,49.1c0.1,3.3,4.7,3.2,5,0
			c1.5-14.2,3.7-32.6,19.2-38.3c18.8-6.9,24.8,16.1,26.1,30.2c0.3,3.1,5.2,3.3,5,0c-0.7-14.2,2.2-28.4,9.2-40.8
			c6.5-11.6,20-23.9,34-15.7c1.8,1.1,4.4-0.7,3.7-2.8c-5.5-17.2,1.4-36.8,16.7-46.5c2.7-1.7,0.2-6-2.5-4.3
			c-17.1,10.9-25.2,32.8-19,52.1c1.2-0.9,2.4-1.9,3.7-2.8c-13.9-8.1-29.1,0.4-37.5,12.2c-9.9,14-14.1,31.7-13.2,48.7
			c1.7,0,3.3,0,5,0c-1.6-16.5-8.5-40.9-29.9-35.8c-19.9,4.7-23.6,26.6-25.4,43.8c1.7,0,3.3,0,5,0c-1.4-30,5.9-60,21.4-85.7
			c3.5-5.9,7.5-12.7,13.5-16.4c6.7-4,14.9-1.1,22.3-1.5c11.6-0.6,22.9-4.4,32.6-10.8c10.9-7.2,19.4-17.4,24.4-29.5
			C546.3,738,541.5,736.7,540.3,739.6L540.3,739.6z"/>
                    </g>
                </g>
                <g id="XMLID_414_">
                    <g id="XMLID_12_">
                        <path id="XMLID_16_" fill="#231815" d="M579.4,740.9c4.8,9.9,13.4,17.6,23.8,21.3c5.5,2,11,2,16.6,2.7c8.4,1,11.3,7,14.7,14
			c12.5,25.4,17,54.3,13.4,82.3c1.7,0,3.3,0,5,0c0.3-14.5-2.9-32-11.9-43.9c-2.9-3.9-7.3-5-10.7-1c-4.2,4.9-5.5,12.8-5.4,19
			c0,3.3,4.7,3.2,5,0c1.4-15,0.6-31.7-8.8-44.2c-3.5-4.6-8.9-10.3-15.2-7.4c-7.9,3.7-6.7,13.5-9,20.4c1.6,0.4,3.2,0.9,4.8,1.3
			c4.3-20.8-7.3-42.2-26.9-50.3c-3-1.2-4.3,3.6-1.3,4.8c16.9,7,27,26.3,23.4,44.1c-0.6,3.1,3.8,4.4,4.8,1.3c1.4-4.3,1.5-21,10-16.9
			c4.8,2.3,8.3,9.5,10.2,14.1c4,10.3,4,21.7,3,32.5c1.7,0,3.3,0,5,0c0-4,0.4-12,3.7-15c3-2.7,4.4,1.3,5.6,3.5
			c1.4,2.6,2.7,5.3,3.7,8.1c3.6,9.3,5.2,19.2,5,29.2c-0.1,3.3,4.6,3.1,5,0c3.5-27.8-0.8-56.3-12.6-81.7c-2.5-5.4-5.1-12.1-9.9-15.9
			c-4.2-3.4-9.7-3.6-14.9-4c-13.8-1-25.7-8.6-31.8-21.2C582.3,735.5,578,738,579.4,740.9L579.4,740.9z"/>
                    </g>
                </g>
                <g id="XMLID_419_">
                    <g id="XMLID_425_">
                        <path id="XMLID_3_" fill="#231815" d="M601,792.9c-1.1,4-0.9,8.3-2.4,12.1c3.4-15-3-31.4-14.7-41.1c2.2-4.2,3.6-9,4.1-13.8
			c6.2,6.5,14.7,10.8,23.7,11.8c5.6,0.6,11.7,0.1,16.2,3.5c2.3,1.8,3.9,4.3,5.2,6.9c14.7,26.9,20.6,58.6,16.6,89
			c0.4-14.5-3.4-29.1-10.8-41.6c-1.1-1.8-2.6-3.7-4.7-3.5c-1.6,0.2-2.7,1.6-3.5,3c-1.8,3-3,6.4-3.6,9.8c0.7-14.9-1.9-30.6-12.6-40.6
			c-1.4-1.3-3-2.6-4.9-2.8C605.5,785,602.1,789,601,792.9z"/>
                        <path id="XMLID_2_" fill="#231815" d="M588,750.2c-0.4,4.8-1.8,9.5-4.1,13.8c-2.8,5.3-6.8,9.8-11.9,12.8c-10,5.9-23.9,5-32.2-3.1
			c-0.5-0.5-1-1-1.5-1.6c-3.8-4.7-5.6-11-5-16.9c-0.2,0.3-0.4,0.5-0.7,0.8c-0.3-5.8,0.9-11.7,3.8-16.9l0.1,0
			c1.3-6.2,2.7-12.4,4-18.6c3.7,11.7,18.8,18.2,29.9,12.8c1.9-5.8,3.8-11.7,5.7-17.5c7.4,8.9,12.3,20.2,12,31.8
			C588.1,748.5,588,749.4,588,750.2z"/>
                        <path id="XMLID_1_" fill="#231815" d="M427.8,885c-1.7-32.6,7.4-65.6,25.4-92.8c4.1-6.2,9.5-12.6,16.9-13.8c3.2-0.5,6.4,0.1,9.6,0.3
			c20,1.8,40.3-7.4,53-22.7c0.3,5.8,2.1,11.5,5.4,16.3c-12.9,10.8-18.6,29.9-13.1,45.9c-6.5-4.2-15.5-3.6-22.3,0.2
			c-6.8,3.8-11.8,10.2-15.5,17.1c-6.8,12.6-10,27.1-9.1,41.4c-0.6-6.8-2.1-13.6-4.7-20c-1.5-3.8-3.5-7.6-6.6-10.3
			c-8.6-7.4-22.9-2.9-29.7,6.1C430.3,861.8,428.9,873.7,427.8,885z"/>
                    </g>
                    <g id="XMLID_432_">
                        <path id="XMLID_23_" fill="none" stroke="#231815" stroke-miterlimit="10" d="M539.2,742.6c-3.5,3.3-5.4,7.9-5.8,12.6c-0.6,6,1.2,12.3,5,16.9c0.5,0.6,0.9,1.1,1.5,1.6
			c8.3,8.1,22.2,9,32.2,3.1c5.1-3,9.1-7.5,11.9-12.8c2.2-4.2,3.6-9,4.1-13.8c0.1-0.8,0.1-1.7,0.2-2.5c0.3-11.6-4.6-22.9-12-31.8
			c-1.9,5.8-3.8,11.7-5.7,17.5c-11,5.3-26.1-1.1-29.9-12.8c-1.3,6.2-2.7,12.4-4,18.6c-0.1,0.4-0.2,0.7-0.2,1.1"/>
                        <path id="XMLID_17_" fill="none" stroke="#231815" stroke-miterlimit="10" d="M536.5,739.1c-2.8,5.1-4.1,11-3.8,16.9c0.3,5.8,2.1,11.5,5.4,16.3c0.1,0.2,0.2,0.4,0.4,0.5"/>
                        <path id="XMLID_11_" fill="none" stroke="#231815" stroke-miterlimit="10" d="M542,740.4c-2.1,5.3-5,10.3-8.6,14.7c-0.2,0.3-0.4,0.5-0.7,0.8c-12.7,15.4-33.1,24.6-53,22.7
			c-3.2-0.3-6.4-0.8-9.6-0.3c-7.4,1.2-12.7,7.6-16.9,13.8c-18,27.2-27.1,60.2-25.4,92.8c1.2-11.3,2.5-23.2,9.4-32.2
			c6.8-9,21.1-13.5,29.7-6.1c3.1,2.7,5.1,6.5,6.6,10.3c2.5,6.4,4.1,13.1,4.7,20c-0.9-14.3,2.3-28.8,9.1-41.4
			c3.7-6.8,8.7-13.3,15.5-17.1c6.8-3.8,15.7-4.5,22.3-0.2c-5.5-16,0.3-35.1,13.1-45.9c0.1-0.1,0.1-0.1,0.2-0.2
			c1.4-1.2,2.9-2.3,4.5-3.2"/>
                        <path id="XMLID_6_" fill="none" stroke="#231815" stroke-miterlimit="10" d="M627.1,829.1c0.7-14.9-1.9-30.6-12.6-40.6c-1.4-1.3-3-2.6-4.9-2.8c-4.1-0.6-7.5,3.3-8.6,7.3
			c-1.1,4-0.9,8.3-2.4,12.1c3.4-15-3-31.4-14.7-41.1c-3.1-2.6-6.6-4.7-10.4-6.2"/>
                        <path id="XMLID_5_" fill="none" stroke="#231815" stroke-miterlimit="10" d="M627.1,829.1c-0.4,2.1-0.5,4.3-0.5,6.4C626.8,833.4,627,831.3,627.1,829.1z"/>
                        <path id="XMLID_4_" fill="none" stroke="#231815" stroke-miterlimit="10" d="M580.8,739.8c1.8,3.8,4.2,7.4,7.2,10.4c6.2,6.5,14.7,10.8,23.7,11.8c5.6,0.6,11.7,0.1,16.2,3.5
			c2.3,1.8,3.9,4.3,5.2,6.9c14.7,26.9,20.6,58.6,16.6,89c0.4-14.5-3.4-29.1-10.8-41.6c-1.1-1.8-2.6-3.7-4.7-3.5
			c-1.6,0.2-2.7,1.6-3.5,3c-1.8,3-3,6.4-3.6,9.8"/>
                    </g>
                </g>
                <g id="XMLID_29_">
                    <g id="XMLID_46_">
                        <path id="XMLID_50_" fill="#FFFFFF" d="M555.2,758.9c3.2,0,3.2-5,0-5C552,753.9,552,758.9,555.2,758.9L555.2,758.9z"/>
                    </g>
                </g>
                <g id="XMLID_35_">
                    <g id="XMLID_53_">
                        <path id="XMLID_57_" fill="#FFFFFF" d="M577.1,756.6c3.2,0,3.2-5,0-5C573.9,751.6,573.9,756.6,577.1,756.6L577.1,756.6z"/>
                    </g>
                </g>
                <animate
                        id="frame2"
                        attributeName="display"
                        values="none;inline;none;"
                        keyTimes="0;0.5;1"
                        dur="1s"
                        begin="0s"
                        repeatCount="indefinite" />
             </g>
            <animateMotion path="M-35 35 C -15 25, -10 25, -10 35 S 0 50, 5 35Z" dur="1.5s" repeatCount="indefinite" />
</svg>