<svg aria-hidden="true" style="position: absolute; width: 0; height: 0; overflow: hidden;" version="1.1" xmlns="http://www.w3.org/2000/svg" xmlns:xlink="http://www.w3.org/1999/xlink">
<defs>
<symbol id="icon-arrow_drop_up" viewBox="0 0 24 24">
<title>arrow_drop_up</title>
<path d="M6.984 14.016l5.016-5.016 5.016 5.016h-10.031z"></path>
</symbol>
<symbol id="icon-border_color" viewBox="0 0 24 24">
<title>border_color</title>
<path d="M0 20.016h24v3.984h-24v-3.984zM20.719 4.031l-1.969 1.969-3.75-3.75 1.969-1.969c0.375-0.375 1.031-0.375 1.406 0l2.344 2.344c0.375 0.375 0.375 1.031 0 1.406zM17.766 6.984l-10.031 10.031h-3.75v-3.75l10.031-10.031z"></path>
</symbol>
<symbol id="icon-mode_edit" viewBox="0 0 24 24">
<title>mode_edit</title>
<path d="M20.719 7.031l-1.828 1.828-3.75-3.75 1.828-1.828c0.375-0.375 1.031-0.375 1.406 0l2.344 2.344c0.375 0.375 0.375 1.031 0 1.406zM3 17.25l11.063-11.063 3.75 3.75-11.063 11.063h-3.75v-3.75z"></path>
</symbol>
<symbol id="icon-expand_less" viewBox="0 0 24 24">
<title>expand_less</title>
<path d="M12 8.016l6 6-1.406 1.406-4.594-4.594-4.594 4.594-1.406-1.406z"></path>
</symbol>
<symbol id="icon-expand_more" viewBox="0 0 24 24">
<title>expand_more</title>
<path d="M16.594 8.578l1.406 1.406-6 6-6-6 1.406-1.406 4.594 4.594z"></path>
</symbol>
</defs>
</svg>
