<svg aria-hidden="true" style="position: absolute; width: 0; height: 0; overflow: hidden;" version="1.1" xmlns="http://www.w3.org/2000/svg" xmlns:xlink="http://www.w3.org/1999/xlink">
<defs>
   <symbol id="icon-cog" viewBox="0 0 32 32">
      <title>cog</title>
      <path d="M25.995 19.068h-1.324c-0.215 0.779-0.523 1.518-0.918 2.203l1.224 1.223c0.783 0.783 0.783 2.053 0 2.836l-0.709 0.709c-0.783 0.783-2.053 0.783-2.836 0l-1.232-1.231c-0.683 0.389-1.419 0.692-2.194 0.903v1.284c0 1.107-0.897 2.005-2.005 2.005h-1.002c-1.107 0-2.006-0.897-2.006-2.005v-1.284c-0.774-0.211-1.511-0.515-2.194-0.903l-1.231 1.231c-0.782 0.783-2.052 0.783-2.835 0l-0.71-0.709c-0.783-0.783-0.783-2.053 0-2.836l1.224-1.223c-0.395-0.686-0.703-1.424-0.919-2.203h-1.323c-1.108 0-2.005-0.897-2.005-2.004v-1.003c0-1.107 0.897-2.005 2.005-2.005h1.308c0.207-0.771 0.503-1.505 0.887-2.186l-1.177-1.176c-0.783-0.783-0.783-2.053 0-2.836l0.709-0.708c0.783-0.783 2.053-0.783 2.835 0l1.153 1.153c0.706-0.411 1.468-0.731 2.272-0.95v-1.348c0.001-1.108 0.9-2.005 2.007-2.005h1.002c1.107 0 2.005 0.897 2.005 2.005v1.347c0.806 0.22 1.567 0.54 2.272 0.951l1.153-1.153c0.783-0.783 2.053-0.783 2.836 0l0.709 0.708c0.783 0.783 0.783 2.053 0 2.836l-1.176 1.176c0.384 0.681 0.68 1.415 0.888 2.187h1.308c1.107 0 2.005 0.898 2.005 2.005v1.003c-0.001 1.106-0.898 2.003-2.006 2.003zM15.5 11.080c-3.045 0-5.514 2.469-5.514 5.514s2.469 5.514 5.514 5.514 5.514-2.469 5.514-5.514-2.469-5.514-5.514-5.514zM15.5 19.037c-1.384 0-2.507-1.121-2.507-2.506 0-1.384 1.123-2.506 2.507-2.506s2.506 1.122 2.506 2.506c0 1.385-1.122 2.506-2.506 2.506z"></path>
   </symbol>
   <symbol id="icon-checkmark" viewBox="0 0 32 32">
      <title>checkmark</title>
      <path d="M28.998 8.531l-2.134-2.134c-0.394-0.393-1.030-0.393-1.423 0l-12.795 12.795-6.086-6.13c-0.393-0.393-1.029-0.393-1.423 0l-2.134 2.134c-0.393 0.394-0.393 1.030 0 1.423l8.924 8.984c0.393 0.393 1.030 0.393 1.423 0l15.648-15.649c0.393-0.392 0.393-1.030 0-1.423z"></path>
   </symbol>
   <symbol id="icon-cancel" viewBox="0 0 32 32">
      <title>cancel</title>
      <path d="M19.587 16.001l6.096 6.096c0.396 0.396 0.396 1.039 0 1.435l-2.151 2.151c-0.396 0.396-1.038 0.396-1.435 0l-6.097-6.096-6.097 6.096c-0.396 0.396-1.038 0.396-1.434 0l-2.152-2.151c-0.396-0.396-0.396-1.038 0-1.435l6.097-6.096-6.097-6.097c-0.396-0.396-0.396-1.039 0-1.435l2.153-2.151c0.396-0.396 1.038-0.396 1.434 0l6.096 6.097 6.097-6.097c0.396-0.396 1.038-0.396 1.435 0l2.151 2.152c0.396 0.396 0.396 1.038 0 1.435l-6.096 6.096z"></path>
   </symbol>
   <symbol id="icon-folder" viewBox="0 0 35 32">
      <title>folder</title>
      <path d="M8.431 9.155h20.958c2.158 0 2.158-2.238 0.084-2.238h-14.486c-0.83 0-1.244-1.244-1.244-1.244s-0.581-1.825-1.743-1.825h-10.789c-1.576 0-1.162 1.825-1.162 1.825s2.407 20.47 2.573 21.715 1.453 1.612 1.453 1.612l2.821-18.103c0.208-1.327 1.12-1.7 1.535-1.742zM33.658 9.942h-24.563c-0.733 0-1.328 0.594-1.328 1.327l-2.572 16.4c0 0.734 0.595 1.328 1.328 1.328h24.563c0.732 0 1.328-0.594 1.328-1.328l2.572-16.4c0-0.733-0.593-1.327-1.328-1.327z"></path>
   </symbol>
   <symbol id="icon-trashcan" viewBox="0 0 32 32">
      <title>trashcan</title>
      <path d="M8 26c0 1.656 1.343 3 3 3h10c1.656 0 3-1.344 3-3l2-16h-20l2 16zM19 13h2v13h-2v-13zM15 13h2v13h-2v-13zM11 13h2v13h-2v-13zM25.5 6h-6.5c0 0-0.448-2-1-2h-4c-0.553 0-1 2-1 2h-6.5c-0.829 0-1.5 0.671-1.5 1.5s0 1.5 0 1.5h22c0 0 0-0.671 0-1.5s-0.672-1.5-1.5-1.5z"></path>
   </symbol>
   <symbol id="icon-archive" viewBox="0 0 32 32">
      <title>archive</title>
      <path d="M13.070 5.202l-5.796-1.553c-0.533-0.143-1.081 0.174-1.224 0.707l-5.953 22.216c-0.143 0.534 0.174 1.082 0.708 1.226l5.795 1.553c0.533 0.143 1.082-0.174 1.225-0.707l5.953-22.217c0.142-0.533-0.174-1.082-0.708-1.225zM7.78 24.943c-0.429 1.601-2.073 2.55-3.674 2.121s-2.55-2.073-2.121-3.674 2.073-2.551 3.674-2.121c1.601 0.429 2.55 2.074 2.121 3.674zM8.929 20.657l-5.795-1.553 3.105-11.591 5.796 1.554-3.106 11.59zM18.938 23c-0.829 0-1.5 0.672-1.5 1.5s0.671 1.5 1.5 1.5c0.828 0 1.5-0.672 1.5-1.5s-0.672-1.5-1.5-1.5zM10.811 9.773l-3.865-1.035-0.258 0.966 3.864 1.035 0.259-0.966zM10.033 12.671l0.26-0.966-3.864-1.035-0.259 0.966 3.863 1.035zM5.255 22.778c-0.8-0.215-1.623 0.261-1.837 1.061-0.215 0.801 0.26 1.623 1.061 1.837 0.8 0.215 1.623-0.26 1.837-1.061s-0.261-1.622-1.061-1.837zM29.938 9h-4v1h4v-1zM29.938 13h-4v1h4v-1zM29.938 11h-4v1h4v-1zM27.938 23c-0.829 0-1.5 0.672-1.5 1.5s0.671 1.5 1.5 1.5c0.828 0 1.5-0.672 1.5-1.5s-0.672-1.5-1.5-1.5zM30.938 4h-6c-0.553 0-1 0.447-1 1v23c0 0.552 0.447 1 1 1h6c0.552 0 1-0.448 1-1v-23c0-0.553-0.449-1-1-1zM27.938 27.5c-1.657 0-3-1.344-3-3 0-1.657 1.343-3 3-3 1.656 0 3 1.343 3 3 0 1.656-1.344 3-3 3zM30.938 20h-6v-12h6v12zM20.938 9h-4v1h4v-1zM20.938 13h-4v1h4v-1zM21.938 4h-6c-0.553 0-1 0.447-1 1v23c0 0.552 0.447 1 1 1h6c0.552 0 1-0.448 1-1v-23c0-0.553-0.449-1-1-1zM18.938 27.438c-1.657 0-3-1.344-3-3 0-1.657 1.343-3 3-3 1.656 0 3 1.343 3 3 0 1.656-1.344 3-3 3zM21.938 20h-6v-12h6v12zM20.938 11h-4v1h4v-1zM5.652 13.567l3.863 1.035 0.26-0.966-3.864-1.035-0.259 0.966z"></path>
   </symbol>
   <symbol id="icon-box" viewBox="0 0 32 32">
      <title>box</title>
      <path d="M1.735 17.832l12.054 6.081 2.152-6.081-12.053-5.758-2.153 5.758zM16.211 17.832l2.045 6.027 12.484-6.081-2.422-5.704-12.107 5.758zM-0.247 7.212l4.144 4.843 12.053-6.134-3.928-5.005-12.269 6.296zM32.247 7.319l-12.001-6.403-4.090 5.005 12.162 6.134 3.929-4.736zM3.175 19.353l-0.041 5.839 12.713 5.893v-10.98l-1.816 4.736-10.856-5.488zM16.291 20.105v10.979l12.674-5.893v-5.799l-10.99 5.46-1.684-4.747z"></path>
   </symbol>
   <symbol id="icon-chat" viewBox="0 0 32 32">
      <title>chat</title>
      <path d="M25.042 18.672v-12.487c0-1.234-1-2.236-2.236-2.236h-19.571c-1.235-0.001-2.236 1.001-2.236 2.236v12.487c0 1.235 1.001 2.236 2.236 2.236h3.729v5.137l5.704-5.137h10.137c1.237 0 2.237-1.001 2.237-2.236zM28.765 8.858h-2.798c0 0 0 9.972 0 10.909s-1.216 2.142-2.153 2.142-10.945 0.055-10.945 0.055c0 1.235 1.001 1.986 2.236 1.986h4.309l5.622 5.102-0.007-5.102h3.736c1.236 0 2.236-0.751 2.236-1.986v-10.932c0-1.234-1-2.174-2.236-2.174z"></path>
   </symbol>
   <symbol id="icon-chat1" viewBox="0 0 32 32">
      <title>chat1</title>
      <path d="M25.785 4.952h-19.57c-1.235 0-2.236 1.002-2.236 2.236v12.488c0 1.234 1.001 2.236 2.236 2.236h3.729l0.001 5.137 5.704-5.137h10.137c1.236 0 2.236-1.002 2.236-2.236v-12.488c-0.001-1.234-1.001-2.236-2.237-2.236zM10 13.969c-0.553 0-1-0.448-1-1 0-0.553 0.447-1 1-1 0.552 0 1 0.447 1 1 0 0.552-0.448 1-1 1zM14 13.927c-0.553 0-1-0.448-1-1 0-0.553 0.447-1 1-1 0.552 0 1 0.447 1 1 0 0.552-0.448 1-1 1zM18.020 13.948c-0.552 0-1-0.447-1-1 0-0.552 0.448-1 1-1 0.553 0 1 0.448 1 1s-0.448 1-1 1zM22 13.969c-0.553 0-1-0.448-1-1 0-0.553 0.447-1 1-1 0.552 0 1 0.447 1 1 0 0.552-0.448 1-1 1z"></path>
   </symbol>
   <symbol id="icon-envelope" viewBox="0 0 32 32">
      <title>envelope</title>
      <path d="M20.139 18.934l9.787-7.999-13.926-9.833-13.89 9.833 9.824 8.032 8.205-0.033zM12.36 19.936l-9.279 10.962h25.876l-9.363-10.9-7.234-0.062zM20.705 19.803l9.291 11.084v-18.952l-9.291 7.868zM2.004 11.935v18.952l9.291-11.084-9.291-7.868z"></path>
   </symbol>
   <symbol id="icon-heart" viewBox="0 0 32 32">
      <title>heart</title>
      <path d="M16.042 8.345c0 0-2-4.262-6.5-4.262-4.917 0-7.5 4.167-7.5 8.333 0 6.917 14 15.5 14 15.5s13.916-8.5 13.916-15.5c0-4.25-2.666-8.333-7.416-8.333s-6.5 4.262-6.5 4.262z"></path>
   </symbol>
   <symbol id="icon-book" viewBox="0 0 32 32">
      <title>book</title>
      <path d="M15 25.875v-19.625c0 0-2.688-2.25-6.5-2.25s-6.5 2-6.5 2v19.875c0 0 2.688-1.938 6.5-1.938s6.5 1.938 6.5 1.938zM29 25.875v-19.625c0 0-2.688-2.25-6.5-2.25s-6.5 2-6.5 2v19.875c0 0 2.688-1.938 6.5-1.938s6.5 1.938 6.5 1.938zM31 8h-1v19h-12v1h-5v-1h-12v-19h-1v20h12v1h7.062l-0.062-1h12v-20z"></path>
   </symbol>
   <symbol id="icon-pencil" viewBox="0 0 32 32">
      <title>pencil</title>
      <path d="M27 0c2.761 0 5 2.239 5 5 0 1.126-0.372 2.164-1 3l-2 2-7-7 2-2c0.836-0.628 1.874-1 3-1zM2 23l-2 9 9-2 18.5-18.5-7-7-18.5 18.5zM22.362 11.362l-14 14-1.724-1.724 14-14 1.724 1.724z"></path>
   </symbol>
   <symbol id="icon-camera" viewBox="0 0 32 32">
      <title>camera</title>
      <path d="M9.5 19c0 3.59 2.91 6.5 6.5 6.5s6.5-2.91 6.5-6.5-2.91-6.5-6.5-6.5-6.5 2.91-6.5 6.5zM30 8h-7c-0.5-2-1-4-3-4h-8c-2 0-2.5 2-3 4h-7c-1.1 0-2 0.9-2 2v18c0 1.1 0.9 2 2 2h28c1.1 0 2-0.9 2-2v-18c0-1.1-0.9-2-2-2zM16 27.875c-4.902 0-8.875-3.973-8.875-8.875s3.973-8.875 8.875-8.875c4.902 0 8.875 3.973 8.875 8.875s-3.973 8.875-8.875 8.875zM30 14h-4v-2h4v2z"></path>
   </symbol>
   <symbol id="icon-price-tags" viewBox="0 0 40 32">
      <title>price-tags</title>
      <path d="M38.5 0h-12c-0.825 0-1.977 0.477-2.561 1.061l-14.879 14.879c-0.583 0.583-0.583 1.538 0 2.121l12.879 12.879c0.583 0.583 1.538 0.583 2.121 0l14.879-14.879c0.583-0.583 1.061-1.736 1.061-2.561v-12c0-0.825-0.675-1.5-1.5-1.5zM31 12c-1.657 0-3-1.343-3-3s1.343-3 3-3 3 1.343 3 3-1.343 3-3 3z"></path>
      <path d="M4 17l17-17h-2.5c-0.825 0-1.977 0.477-2.561 1.061l-14.879 14.879c-0.583 0.583-0.583 1.538 0 2.121l12.879 12.879c0.583 0.583 1.538 0.583 2.121 0l0.939-0.939-13-13z"></path>
   </symbol>
   <symbol id="icon-link" viewBox="0 0 32 32">
      <title>link</title>
      <path d="M13.757 19.868c-0.416 0-0.832-0.159-1.149-0.476-2.973-2.973-2.973-7.81 0-10.783l6-6c1.44-1.44 3.355-2.233 5.392-2.233s3.951 0.793 5.392 2.233c2.973 2.973 2.973 7.81 0 10.783l-2.743 2.743c-0.635 0.635-1.663 0.635-2.298 0s-0.635-1.663 0-2.298l2.743-2.743c1.706-1.706 1.706-4.481 0-6.187-0.826-0.826-1.925-1.281-3.094-1.281s-2.267 0.455-3.094 1.281l-6 6c-1.706 1.706-1.706 4.481 0 6.187 0.635 0.635 0.635 1.663 0 2.298-0.317 0.317-0.733 0.476-1.149 0.476z"></path>
      <path d="M8 31.625c-2.037 0-3.952-0.793-5.392-2.233-2.973-2.973-2.973-7.81 0-10.783l2.743-2.743c0.635-0.635 1.664-0.635 2.298 0s0.635 1.663 0 2.298l-2.743 2.743c-1.706 1.706-1.706 4.481 0 6.187 0.826 0.826 1.925 1.281 3.094 1.281s2.267-0.455 3.094-1.281l6-6c1.706-1.706 1.706-4.481 0-6.187-0.635-0.635-0.635-1.663 0-2.298s1.663-0.635 2.298 0c2.973 2.973 2.973 7.81 0 10.783l-6 6c-1.44 1.44-3.355 2.233-5.392 2.233z"></path>
   </symbol>
   <symbol id="icon-attachment" viewBox="0 0 32 32">
      <title>attachment</title>
      <path d="M20.807 10.22l-2.030-2.029-10.15 10.148c-1.682 1.681-1.682 4.408 0 6.089s4.408 1.681 6.090 0l12.18-12.178c2.804-2.802 2.804-7.346 0-10.148-2.802-2.803-7.347-2.803-10.149 0l-12.788 12.787c-0.009 0.009-0.019 0.018-0.027 0.026-3.909 3.909-3.909 10.245 0 14.153 3.908 3.908 10.246 3.908 14.156 0 0.009-0.009 0.016-0.018 0.026-0.027l0.001 0.001 8.729-8.728-2.031-2.029-8.729 8.727c-0.009 0.008-0.018 0.018-0.026 0.026-2.784 2.783-7.312 2.783-10.096 0-2.783-2.783-2.783-7.31 0-10.093 0.010-0.009 0.019-0.018 0.028-0.026l-0.001-0.002 12.79-12.786c1.678-1.679 4.411-1.679 6.090 0s1.678 4.411 0 6.089l-12.18 12.178c-0.56 0.56-1.47 0.56-2.030 0-0.559-0.559-0.559-1.47 0-2.029l10.15-10.149z"></path>
   </symbol>
   <symbol id="icon-eye" viewBox="0 0 32 32">
      <title>eye</title>
      <path d="M16 6c-6.979 0-13.028 4.064-16 10 2.972 5.936 9.021 10 16 10s13.027-4.064 16-10c-2.972-5.936-9.021-10-16-10zM23.889 11.303c1.88 1.199 3.473 2.805 4.67 4.697-1.197 1.891-2.79 3.498-4.67 4.697-2.362 1.507-5.090 2.303-7.889 2.303s-5.527-0.796-7.889-2.303c-1.88-1.199-3.473-2.805-4.67-4.697 1.197-1.891 2.79-3.498 4.67-4.697 0.122-0.078 0.246-0.154 0.371-0.228-0.311 0.854-0.482 1.776-0.482 2.737 0 4.418 3.582 8 8 8s8-3.582 8-8c0-0.962-0.17-1.883-0.482-2.737 0.124 0.074 0.248 0.15 0.371 0.228v0zM16 13c0 1.657-1.343 3-3 3s-3-1.343-3-3 1.343-3 3-3 3 1.343 3 3z"></path>
   </symbol>
   <symbol id="icon-cross" viewBox="0 0 32 32">
      <title>cross</title>
      <path d="M31.708 25.708c-0-0-0-0-0-0l-9.708-9.708 9.708-9.708c0-0 0-0 0-0 0.105-0.105 0.18-0.227 0.229-0.357 0.133-0.356 0.057-0.771-0.229-1.057l-4.586-4.586c-0.286-0.286-0.702-0.361-1.057-0.229-0.13 0.048-0.252 0.124-0.357 0.228 0 0-0 0-0 0l-9.708 9.708-9.708-9.708c-0-0-0-0-0-0-0.105-0.104-0.227-0.18-0.357-0.228-0.356-0.133-0.771-0.057-1.057 0.229l-4.586 4.586c-0.286 0.286-0.361 0.702-0.229 1.057 0.049 0.13 0.124 0.252 0.229 0.357 0 0 0 0 0 0l9.708 9.708-9.708 9.708c-0 0-0 0-0 0-0.104 0.105-0.18 0.227-0.229 0.357-0.133 0.355-0.057 0.771 0.229 1.057l4.586 4.586c0.286 0.286 0.702 0.361 1.057 0.229 0.13-0.049 0.252-0.124 0.357-0.229 0-0 0-0 0-0l9.708-9.708 9.708 9.708c0 0 0 0 0 0 0.105 0.105 0.227 0.18 0.357 0.229 0.356 0.133 0.771 0.057 1.057-0.229l4.586-4.586c0.286-0.286 0.362-0.702 0.229-1.057-0.049-0.13-0.124-0.252-0.229-0.357z"></path>
   </symbol>
   <symbol id="icon-checkmark1" viewBox="0 0 32 32">
      <title>checkmark1</title>
      <path d="M27 4l-15 15-7-7-5 5 12 12 20-20z"></path>
   </symbol>
   <symbol id="icon-book-reference" viewBox="0 0 20 20">
      <title>book-reference</title>
      <path d="M6 4h-1c-0.552 0-1-0.448-1-1s0.448-1 1-1v0h11v-1c0-0.552-0.448-1-1-1v0h-11c-1.105 0-2 0.895-2 2v0 16c0 1.1 0.9 2 2 2h12c1.105 0 2-0.895 2-2v0-13c0-0.552-0.448-1-1-1v0h-7v8l-2-2-2 2v-8z"></path>
   </symbol>
   <symbol id="icon-plus" viewBox="0 0 32 32">
      <title>plus</title>
      <path d="M31 12h-11v-11c0-0.552-0.448-1-1-1h-6c-0.552 0-1 0.448-1 1v11h-11c-0.552 0-1 0.448-1 1v6c0 0.552 0.448 1 1 1h11v11c0 0.552 0.448 1 1 1h6c0.552 0 1-0.448 1-1v-11h11c0.552 0 1-0.448 1-1v-6c0-0.552-0.448-1-1-1z"></path>
   </symbol>
   <symbol id="icon-caret-up" viewBox="0 0 16 28">
      <title>caret-up</title>
      <path d="M16 19c0 0.547-0.453 1-1 1h-14c-0.547 0-1-0.453-1-1 0-0.266 0.109-0.516 0.297-0.703l7-7c0.187-0.187 0.438-0.297 0.703-0.297s0.516 0.109 0.703 0.297l7 7c0.187 0.187 0.297 0.438 0.297 0.703z"></path>
   </symbol>
   <symbol id="icon-caret-down" viewBox="0 0 16 28">
      <title>caret-down</title>
      <path d="M16 11c0 0.266-0.109 0.516-0.297 0.703l-7 7c-0.187 0.187-0.438 0.297-0.703 0.297s-0.516-0.109-0.703-0.297l-7-7c-0.187-0.187-0.297-0.438-0.297-0.703 0-0.547 0.453-1 1-1h14c0.547 0 1 0.453 1 1z"></path>
   </symbol>
   <symbol id="icon-plus" viewBox="0 0 32 32">
      <title>plus</title>
      <path d="M31 12h-11v-11c0-0.552-0.448-1-1-1h-6c-0.552 0-1 0.448-1 1v11h-11c-0.552 0-1 0.448-1 1v6c0 0.552 0.448 1 1 1h11v11c0 0.552 0.448 1 1 1h6c0.552 0 1-0.448 1-1v-11h11c0.552 0 1-0.448 1-1v-6c0-0.552-0.448-1-1-1z"></path>
   </symbol>
   <symbol id="icon-chevron-down" viewBox="0 0 28 28">
      <title>chevron-down</title>
      <path d="M26.297 12.625l-11.594 11.578c-0.391 0.391-1.016 0.391-1.406 0l-11.594-11.578c-0.391-0.391-0.391-1.031 0-1.422l2.594-2.578c0.391-0.391 1.016-0.391 1.406 0l8.297 8.297 8.297-8.297c0.391-0.391 1.016-0.391 1.406 0l2.594 2.578c0.391 0.391 0.391 1.031 0 1.422z"></path>
   </symbol>
</defs>
</svg>
